<?xml version="1.0" encoding="utf-8"?>
<!-- Generator: Adobe Illustrator 24.0.3, SVG Export Plug-In . SVG Version: 6.00 Build 0)  -->
<svg version="1.1" xmlns="http://www.w3.org/2000/svg" xmlns:xlink="http://www.w3.org/1999/xlink" x="0px" y="0px"
	 viewBox="0 0 1920 1080" style="enable-background:new 0 0 1920 1080;" xml:space="preserve">
<style type="text/css">
	.st0{fill:#4A5054;}
	.st1{fill:#4A434F;}
	.st2{fill:#B9002C;}
	.st3{fill:#297300;}
	.st4{fill:#0010A2;}
	.st5{fill:none;}
	.st6{fill:#FFFFFF;}
	.st7{font-family:'MyriadPro-Regular';}
	.st8{font-size:48px;}
	.st9{fill:#4A5054;stroke:#000000;stroke-width:5;stroke-miterlimit:10;}
	.st10{fill:#4A4539;}
	.st11{fill:#4A2025;}
	.st12{fill:#FFC727;}
	.st13{fill:#51FF50;stroke:#000000;stroke-width:3;stroke-linejoin:round;stroke-miterlimit:3;}
	.st14{fill:#505AFF;stroke:#000000;stroke-width:3;stroke-linejoin:round;stroke-miterlimit:3;}
	.st15{fill:#E21B30;stroke:#000000;stroke-width:3;stroke-linejoin:round;stroke-miterlimit:3;}
	.st16{fill:#FFC727;stroke:#FFC727;stroke-width:16;stroke-miterlimit:10;}
</style>
<g id="Layer_1">
	<g>
		<rect x="2.5" y="0.5" class="st0" width="1919" height="1079"/>
		<path d="M1921,1v1078H3V1H1921 M1922,0H2v1080h1920V0L1922,0z"/>
	</g>
	<g>
		<path class="st1" d="M368.97,827.5c-18.45,0-33.47-15.01-33.47-33.47v-16.06c0-18.45,15.01-33.47,33.47-33.47h634.06
			c18.45,0,33.47,15.01,33.47,33.47v16.06c0,18.45-15.01,33.47-33.47,33.47H368.97z"/>
		<path d="M1003.03,745c18.18,0,32.97,14.79,32.97,32.97v16.07c0,18.18-14.79,32.97-32.97,32.97H368.97
			c-18.18,0-32.97-14.79-32.97-32.97v-16.07c0-18.18,14.79-32.97,32.97-32.97H1003.03 M1003.03,744H368.97
			c-18.76,0-33.97,15.21-33.97,33.97v16.07c0,18.76,15.21,33.97,33.97,33.97h634.07c18.76,0,33.97-15.21,33.97-33.97v-16.07
			C1037,759.21,1021.79,744,1003.03,744L1003.03,744z"/>
	</g>
	<g>
		<path class="st2" d="M246.97,969.5c-18.45,0-33.47-15.01-33.47-33.47v-16.06c0-18.45,15.01-33.47,33.47-33.47h332.07
			c18.45,0,33.47,15.01,33.47,33.47v16.06c0,18.45-15.01,33.47-33.47,33.47H246.97z"/>
		<path d="M579.03,887c18.18,0,32.97,14.79,32.97,32.97v16.07c0,18.18-14.79,32.97-32.97,32.97H246.97
			c-18.18,0-32.97-14.79-32.97-32.97v-16.07c0-18.18,14.79-32.97,32.97-32.97H579.03 M579.03,886H246.97
			c-18.76,0-33.97,15.21-33.97,33.97v16.07c0,18.76,15.21,33.97,33.97,33.97h332.07c18.76,0,33.97-15.21,33.97-33.97v-16.07
			C613,901.21,597.79,886,579.03,886L579.03,886z"/>
	</g>
	<g>
		<path class="st3" d="M793.97,969.5c-18.45,0-33.47-15.01-33.47-33.47v-16.06c0-18.45,15.01-33.47,33.47-33.47h332.06
			c18.45,0,33.47,15.01,33.47,33.47v16.06c0,18.45-15.01,33.47-33.47,33.47H793.97z"/>
		<path d="M1126.03,887c18.18,0,32.97,14.79,32.97,32.97v16.07c0,18.18-14.79,32.97-32.97,32.97H793.97
			c-18.18,0-32.97-14.79-32.97-32.97v-16.07c0-18.18,14.79-32.97,32.97-32.97H1126.03 M1126.03,886H793.97
			c-18.76,0-33.97,15.21-33.97,33.97v16.07c0,18.76,15.21,33.97,33.97,33.97h332.07c18.76,0,33.97-15.21,33.97-33.97v-16.07
			C1160,901.21,1144.79,886,1126.03,886L1126.03,886z"/>
	</g>
	<g>
		<path class="st4" d="M1337.97,969.5c-18.45,0-33.47-15.01-33.47-33.47v-16.06c0-18.45,15.01-33.47,33.47-33.47h332.06
			c18.45,0,33.47,15.01,33.47,33.47v16.06c0,18.45-15.01,33.47-33.47,33.47H1337.97z"/>
		<path d="M1670.03,887c18.18,0,32.97,14.79,32.97,32.97v16.07c0,18.18-14.79,32.97-32.97,32.97h-332.07
			c-18.18,0-32.97-14.79-32.97-32.97v-16.07c0-18.18,14.79-32.97,32.97-32.97H1670.03 M1670.03,886h-332.07
			c-18.76,0-33.97,15.21-33.97,33.97v16.07c0,18.76,15.21,33.97,33.97,33.97h332.07c18.76,0,33.97-15.21,33.97-33.97v-16.07
			C1704,901.21,1688.79,886,1670.03,886L1670.03,886z"/>
	</g>
	<g>
		<g>
			<g>
				<path d="M374.3,713.37v-0.07c2.56-0.94,4.1-2.99,4.1-5.33c0-1.91-0.76-3.35-2.02-4.28c-1.51-1.22-3.53-1.76-6.66-1.76
					c-2.2,0-4.36,0.22-5.72,0.5v23.86c1.04,0.14,2.7,0.29,4.86,0.29c3.96,0,6.69-0.72,8.39-2.27c1.22-1.19,2.05-2.77,2.05-4.86
					C379.31,715.85,376.61,713.95,374.3,713.37z M367.14,704.55c0.5-0.11,1.33-0.22,2.77-0.22c3.17,0,5.33,1.12,5.33,3.96
					c0,2.34-1.94,4.07-5.26,4.07h-2.84V704.55z M369.77,724.13c-1.12,0-2.02-0.04-2.63-0.14v-9.25h2.59c3.42,0,6.26,1.37,6.26,4.68
					C376,722.94,373.01,724.13,369.77,724.13z"/>
				<path d="M395.65,715.67c0-3.49-1.3-7.13-6.62-7.13c-2.2,0-4.28,0.61-5.72,1.55l0.72,2.09c1.22-0.79,2.92-1.3,4.54-1.3
					c3.56,0,3.96,2.59,3.96,4.03v0.36c-6.73-0.04-10.47,2.27-10.47,6.48c0,2.52,1.8,5,5.33,5c2.48,0,4.36-1.22,5.33-2.59h0.11
					l0.25,2.2h2.88c-0.22-1.19-0.29-2.66-0.29-4.18V715.67z M392.59,720.5c0,0.32-0.07,0.68-0.18,1.01
					c-0.5,1.48-1.94,2.92-4.21,2.92c-1.62,0-2.99-0.97-2.99-3.02c0-3.38,3.92-4,7.38-3.92V720.5z"/>
				<rect x="400.76" y="700.81" width="3.17" height="25.56"/>
				<path d="M421.5,715.67c0-3.49-1.3-7.13-6.62-7.13c-2.2,0-4.28,0.61-5.72,1.55l0.72,2.09c1.22-0.79,2.92-1.3,4.54-1.3
					c3.56,0,3.96,2.59,3.96,4.03v0.36c-6.73-0.04-10.47,2.27-10.47,6.48c0,2.52,1.8,5,5.33,5c2.48,0,4.36-1.22,5.33-2.59h0.11
					l0.25,2.2h2.88c-0.22-1.19-0.29-2.66-0.29-4.18V715.67z M418.44,720.5c0,0.32-0.07,0.68-0.18,1.01
					c-0.5,1.48-1.94,2.92-4.21,2.92c-1.62,0-2.99-0.97-2.99-3.02c0-3.38,3.92-4,7.38-3.92V720.5z"/>
				<path d="M435.29,708.55c-2.88,0-4.9,1.62-5.76,3.28h-0.07l-0.18-2.88h-2.81c0.11,1.44,0.14,2.92,0.14,4.72v12.71h3.17v-10.47
					c0-0.54,0.07-1.08,0.22-1.48c0.54-1.76,2.16-3.24,4.25-3.24c2.99,0,4.03,2.34,4.03,5.15v10.04h3.17v-10.4
					C441.44,709.99,437.7,708.55,435.29,708.55z"/>
				<path d="M454.69,711.1c1.73,0,2.92,0.4,3.67,0.83l0.72-2.45c-0.86-0.43-2.52-0.9-4.39-0.9c-5.69,0-9.36,3.89-9.36,9.25
					c0,5.33,3.42,8.89,8.68,8.89c2.34,0,4.18-0.58,5-1.01l-0.54-2.38c-0.9,0.4-2.09,0.86-3.89,0.86c-3.46,0-6.05-2.48-6.05-6.51
					C448.54,714.05,450.69,711.1,454.69,711.1z"/>
				<path d="M469.63,708.55c-5.08,0-8.17,4.14-8.17,9.39c0,5.25,3.2,8.78,8.57,8.78c2.77,0,4.68-0.58,5.8-1.08l-0.54-2.27
					c-1.19,0.5-2.56,0.9-4.82,0.9c-3.17,0-5.9-1.76-5.98-6.05h12.24c0.04-0.32,0.11-0.83,0.11-1.48
					C476.83,713.55,475.32,708.55,469.63,708.55z M464.52,715.96c0.25-2.2,1.66-5.15,4.86-5.15c3.56,0,4.43,3.13,4.39,5.15H464.52z"
					/>
				<path d="M482.12,714.05c1.33,0,2.16-0.97,2.16-2.23c-0.04-1.33-0.86-2.27-2.12-2.27c-1.26,0-2.16,0.94-2.16,2.27
					C480,713.08,480.86,714.05,482.12,714.05z"/>
				<path d="M482.16,722.26c-1.26,0-2.16,0.94-2.16,2.27c0,1.26,0.86,2.23,2.12,2.23c1.33,0,2.16-0.97,2.16-2.23
					C484.25,723.2,483.42,722.26,482.16,722.26z"/>
			</g>
		</g>
	</g>
	<rect x="361.45" y="764.18" class="st5" width="101.55" height="42.82"/>
	<text transform="matrix(1 0 0 1 361.4546 798.2612)" class="st6 st7 st8">1000</text>
	<rect x="213" y="908.74" class="st5" width="400" height="42.82"/>
	<text transform="matrix(1 0 0 1 372.2971 942.8152)" class="st6 st7 st8">RED</text>
	<rect x="1304" y="906.74" class="st5" width="400" height="42.82"/>
	<text transform="matrix(1 0 0 1 1452.329 940.8159)" class="st6 st7 st8">BLUE</text>
	<rect x="760" y="906.74" class="st5" width="400" height="42.82"/>
	<text transform="matrix(1 0 0 1 947.6883 940.816)" class="st6 st7 st8">0</text>
	<line class="st9" x1="960.5" y1="296.5" x2="962.5" y2="540.5"/>
	<g>
		<path class="st1" d="M1192.97,827.5c-18.45,0-33.47-15.01-33.47-33.47v-16.06c0-18.45,15.01-33.47,33.47-33.47h294.06
			c18.45,0,33.47,15.01,33.47,33.47v16.06c0,18.45-15.01,33.47-33.47,33.47H1192.97z"/>
		<path d="M1487.03,745c18.18,0,32.97,14.79,32.97,32.97v16.07c0,18.18-14.79,32.97-32.97,32.97h-294.07
			c-18.18,0-32.97-14.79-32.97-32.97v-16.07c0-18.18,14.79-32.97,32.97-32.97H1487.03 M1487.03,744h-294.07
			c-18.76,0-33.97,15.21-33.97,33.97v16.07c0,18.76,15.21,33.97,33.97,33.97h294.07c18.76,0,33.97-15.21,33.97-33.97v-16.07
			C1521,759.21,1505.79,744,1487.03,744L1487.03,744z"/>
	</g>
	<g>
		<g>
			<g>
				<path d="M1198.3,713.37v-0.07c2.56-0.94,4.1-2.99,4.1-5.33c0-1.91-0.76-3.35-2.02-4.28c-1.51-1.22-3.53-1.76-6.66-1.76
					c-2.2,0-4.36,0.22-5.72,0.5v23.86c1.04,0.14,2.7,0.29,4.86,0.29c3.96,0,6.69-0.72,8.39-2.27c1.22-1.19,2.05-2.77,2.05-4.86
					C1203.31,715.85,1200.61,713.95,1198.3,713.37z M1191.14,704.55c0.5-0.11,1.33-0.22,2.77-0.22c3.17,0,5.33,1.12,5.33,3.96
					c0,2.34-1.94,4.07-5.25,4.07h-2.84V704.55z M1193.77,724.13c-1.12,0-2.02-0.04-2.63-0.14v-9.25h2.59c3.42,0,6.26,1.37,6.26,4.68
					C1200,722.94,1197.01,724.13,1193.77,724.13z"/>
				<path d="M1214.32,708.55c-5.08,0-8.17,4.14-8.17,9.39c0,5.25,3.2,8.78,8.57,8.78c2.77,0,4.68-0.58,5.8-1.08l-0.54-2.27
					c-1.19,0.5-2.56,0.9-4.82,0.9c-3.17,0-5.9-1.76-5.98-6.05h12.24c0.04-0.32,0.11-0.83,0.11-1.48
					C1221.52,713.55,1220.01,708.55,1214.32,708.55z M1209.21,715.96c0.25-2.2,1.66-5.15,4.86-5.15c3.56,0,4.43,3.13,4.39,5.15
					H1209.21z"/>
				<path d="M1229.26,703.94l-3.1,0.83v4.18h-2.7v2.41h2.7v9.5c0,2.05,0.32,3.6,1.22,4.54c0.76,0.86,1.94,1.33,3.42,1.33
					c1.22,0,2.2-0.18,2.81-0.43l-0.14-2.38c-0.4,0.11-1.01,0.22-1.84,0.22c-1.76,0-2.38-1.22-2.38-3.38v-9.39h4.54v-2.41h-4.54
					V703.94z"/>
				<path d="M1238.73,714.05c1.33,0,2.16-0.97,2.16-2.23c-0.04-1.33-0.86-2.27-2.12-2.27s-2.16,0.94-2.16,2.27
					C1236.61,713.08,1237.47,714.05,1238.73,714.05z"/>
				<path d="M1238.77,722.26c-1.26,0-2.16,0.94-2.16,2.27c0,1.26,0.87,2.23,2.12,2.23c1.33,0,2.16-0.97,2.16-2.23
					C1240.86,723.2,1240.03,722.26,1238.77,722.26z"/>
			</g>
		</g>
	</g>
	<rect x="1185.45" y="764.18" class="st5" width="101.55" height="42.82"/>
	<text transform="matrix(1 0 0 1 1185.4541 798.2612)" class="st6 st7 st8">150</text>
	<g>
		<path class="st1" d="M83.62,297.5c-18.45,0-33.47-15.01-33.47-33.47V112.12c0-18.45,15.01-33.47,33.47-33.47h258.42
			c18.45,0,33.47,15.01,33.47,33.47v151.91c0,18.45-15.01,33.47-33.47,33.47H83.62z"/>
		<path d="M342.03,79.16c18.18,0,32.97,14.79,32.97,32.97v151.91c0,18.18-14.79,32.97-32.97,32.97H83.62
			c-18.18,0-32.97-14.79-32.97-32.97V112.12c0-18.18,14.79-32.97,32.97-32.97H342.03 M342.03,78.16H83.62
			c-18.76,0-33.97,15.21-33.97,33.97v151.91c0,18.76,15.21,33.97,33.97,33.97h258.42c18.76,0,33.97-15.21,33.97-33.97V112.12
			C376,93.36,360.79,78.16,342.03,78.16L342.03,78.16z"/>
	</g>
	<g>
		<g>
			<g>
				<path d="M85.41,44.17v-0.11c2.56-0.86,4.57-2.99,4.57-6.19c0-1.87-0.68-3.53-1.91-4.61c-1.51-1.37-3.67-1.98-7.02-1.98
					c-2.16,0-4.43,0.18-6.01,0.5v23.94h3.13V45.21h2.95c2.84,0.11,4.14,1.37,4.86,4.72c0.68,3.02,1.22,5.11,1.62,5.79h3.24
					c-0.5-0.94-1.08-3.28-1.87-6.66C88.4,46.54,87.28,44.81,85.41,44.17z M81.38,42.83h-3.2v-8.85c0.5-0.14,1.58-0.29,3.1-0.29
					c3.31,0.04,5.58,1.4,5.58,4.54C86.85,41,84.73,42.83,81.38,42.83z"/>
				<path d="M108.88,38.3h-3.17v10.69c0,0.58-0.11,1.15-0.29,1.62c-0.58,1.4-2.05,2.88-4.18,2.88c-2.88,0-3.89-2.23-3.89-5.54V38.3
					h-3.17v10.19c0,6.12,3.28,7.63,6.01,7.63c3.1,0,4.93-1.83,5.76-3.24h0.07l0.18,2.84h2.81c-0.11-1.37-0.14-2.95-0.14-4.75V38.3z"
					/>
				<rect x="114.14" y="30.16" width="3.17" height="25.56"/>
				<path d="M129.54,37.9c-5.08,0-8.17,4.14-8.17,9.39c0,5.25,3.2,8.78,8.57,8.78c2.77,0,4.68-0.58,5.8-1.08l-0.54-2.27
					c-1.19,0.5-2.56,0.9-4.82,0.9c-3.17,0-5.9-1.76-5.98-6.05h12.24c0.04-0.32,0.11-0.83,0.11-1.48
					C136.74,42.91,135.23,37.9,129.54,37.9z M124.43,45.32c0.25-2.2,1.66-5.15,4.86-5.15c3.56,0,4.43,3.13,4.39,5.15H124.43z"/>
				<path d="M146.28,45.61c-2.27-0.86-3.31-1.51-3.31-2.95c0-1.3,1.04-2.38,2.92-2.38c1.62,0,2.88,0.58,3.56,1.01l0.79-2.3
					c-0.97-0.58-2.52-1.08-4.28-1.08c-3.74,0-6.01,2.3-6.01,5.11c0,2.09,1.48,3.82,4.61,4.93c2.34,0.86,3.24,1.69,3.24,3.2
					c0,1.44-1.08,2.59-3.38,2.59c-1.58,0-3.24-0.65-4.18-1.26l-0.79,2.41c1.22,0.72,2.99,1.19,4.9,1.19c4.14,0,6.52-2.16,6.52-5.22
					C150.86,48.27,149.31,46.76,146.28,45.61z"/>
				<path d="M156.29,43.41c1.33,0,2.16-0.97,2.16-2.23c-0.04-1.33-0.86-2.27-2.12-2.27c-1.26,0-2.16,0.94-2.16,2.27
					C154.17,42.44,155.03,43.41,156.29,43.41z"/>
				<path d="M156.33,51.62c-1.26,0-2.16,0.94-2.16,2.27c0,1.26,0.86,2.23,2.12,2.23c1.33,0,2.16-0.97,2.16-2.23
					C158.42,52.55,157.59,51.62,156.33,51.62z"/>
			</g>
		</g>
	</g>
	<g>
		<g>
			<g>
				<path d="M78.5,127.21h2.95c2.84,0.11,4.14,1.37,4.86,4.72c0.68,3.02,1.22,5.11,1.62,5.79h3.24c-0.5-0.94-1.08-3.28-1.87-6.66
					c-0.58-2.52-1.69-4.25-3.56-4.9v-0.11c2.56-0.86,4.57-2.99,4.57-6.19c0-1.87-0.68-3.53-1.91-4.61
					c-1.51-1.37-3.67-1.98-7.02-1.98c-2.16,0-4.43,0.18-6.01,0.5v23.94h3.13V127.21z M78.5,115.98c0.5-0.14,1.58-0.29,3.1-0.29
					c3.31,0.04,5.58,1.4,5.58,4.54c0,2.77-2.12,4.61-5.47,4.61h-3.2V115.98z"/>
				<polygon points="108.38,135.09 97.87,135.09 97.87,126.35 107.3,126.35 107.3,123.76 97.87,123.76 97.87,116.09 107.84,116.09 
					107.84,113.46 94.73,113.46 94.73,137.72 108.38,137.72 				"/>
				<path d="M128.86,134.45c2.27-2.23,3.49-5.47,3.49-9.43c0-3.92-1.26-6.73-3.42-8.71c-2.12-1.98-5.33-3.02-9.83-3.02
					c-2.48,0-4.75,0.22-6.66,0.5v23.86c1.58,0.18,3.46,0.29,5.69,0.29C122.85,137.94,126.59,136.71,128.86,134.45z M115.58,116.09
					c0.83-0.18,2.05-0.32,3.67-0.32c6.62,0,9.86,3.64,9.83,9.36c0,6.55-3.64,10.29-10.33,10.29c-1.22,0-2.38-0.04-3.17-0.18V116.09z
					"/>
				<rect x="142.4" y="126.81" width="8.89" height="2.34"/>
				<path d="M176.56,135.09h-10.51v-0.07l1.87-1.73c4.93-4.75,8.06-8.24,8.06-12.56c0-3.35-2.12-6.8-7.16-6.8
					c-2.7,0-5,1.01-6.62,2.38l1.01,2.23c1.08-0.9,2.84-1.98,4.97-1.98c3.49,0,4.64,2.2,4.64,4.57c-0.04,3.53-2.74,6.55-8.71,12.24
					l-2.48,2.41v1.94h14.94V135.09z"/>
				<polygon points="181.49,137.72 189.19,129.84 196.9,137.72 198.48,136.14 190.74,128.25 198.48,120.37 196.9,118.79 
					189.19,126.67 181.49,118.79 179.91,120.37 187.61,128.25 179.91,136.14 				"/>
				<path d="M88.61,178.87c1.22-1.19,2.05-2.77,2.05-4.86c0-3.6-2.7-5.51-5-6.08v-0.07c2.56-0.94,4.1-2.99,4.1-5.33
					c0-1.91-0.76-3.35-2.02-4.28c-1.51-1.22-3.53-1.76-6.66-1.76c-2.2,0-4.36,0.22-5.72,0.5v23.86c1.04,0.14,2.7,0.29,4.86,0.29
					C84.18,181.14,86.92,180.42,88.61,178.87z M78.5,159.11c0.5-0.11,1.33-0.22,2.77-0.22c3.17,0,5.33,1.12,5.33,3.96
					c0,2.34-1.94,4.07-5.26,4.07H78.5V159.11z M78.5,169.29h2.59c3.42,0,6.26,1.37,6.26,4.68c0,3.53-2.99,4.72-6.23,4.72
					c-1.12,0-2.02-0.04-2.63-0.14V169.29z"/>
				<polygon points="94.88,156.66 94.88,180.92 108.38,180.92 108.38,178.29 98.01,178.29 98.01,156.66 				"/>
				<path d="M120.54,181.32c5.26,0,9.18-3.06,9.18-10.51v-14.15h-3.17v14.36c0,5.36-2.3,7.74-5.9,7.74c-3.24,0-5.65-2.3-5.65-7.74
					v-14.36h-3.17v14.29C111.83,178.47,115.58,181.32,120.54,181.32z"/>
				<polygon points="148.8,178.29 138.29,178.29 138.29,169.55 147.72,169.55 147.72,166.96 138.29,166.96 138.29,159.29 
					148.26,159.29 148.26,156.66 135.16,156.66 135.16,180.92 148.8,180.92 				"/>
				<rect x="158.85" y="170.02" width="8.89" height="2.34"/>
				<path d="M182.5,178.22l1.87-1.73c4.93-4.75,8.06-8.24,8.06-12.56c0-3.35-2.12-6.8-7.16-6.8c-2.7,0-5,1.01-6.62,2.38l1.01,2.23
					c1.08-0.9,2.84-1.98,4.97-1.98c3.49,0,4.64,2.2,4.64,4.57c-0.04,3.53-2.74,6.55-8.71,12.24l-2.48,2.41v1.94h14.94v-2.63H182.5
					V178.22z"/>
				<polygon points="213.35,161.99 205.65,169.87 197.94,161.99 196.36,163.57 204.06,171.45 196.36,179.34 197.94,180.92 
					205.65,173.04 213.35,180.92 214.93,179.34 207.19,171.45 214.93,163.57 				"/>
				<path d="M86.38,224.37c3.28,0,6.05-0.83,7.45-1.33v-11.66h-7.99v2.52h4.93v7.24c-0.72,0.36-2.12,0.65-4.17,0.65
					c-5.65,0-9.36-3.64-9.36-9.79c0-6.08,3.85-9.75,9.75-9.75c2.45,0,4.07,0.47,5.36,1.04l0.76-2.56c-1.04-0.5-3.24-1.12-6.05-1.12
					c-8.13,0-13.1,5.29-13.14,12.53c0,3.78,1.3,7.02,3.38,9.04C79.69,223.44,82.71,224.37,86.38,224.37z"/>
				<path d="M112.55,217.46c-0.58-2.52-1.69-4.25-3.56-4.9v-0.11c2.56-0.86,4.57-2.99,4.57-6.19c0-1.87-0.68-3.53-1.91-4.61
					c-1.51-1.37-3.67-1.98-7.02-1.98c-2.16,0-4.43,0.18-6.01,0.5v23.94h3.13v-10.51h2.95c2.84,0.11,4.14,1.37,4.86,4.72
					c0.68,3.02,1.22,5.11,1.62,5.79h3.24C113.92,223.19,113.34,220.85,112.55,217.46z M104.96,211.23h-3.2v-8.85
					c0.5-0.14,1.58-0.29,3.1-0.29c3.31,0.04,5.58,1.4,5.58,4.54C110.43,209.4,108.3,211.23,104.96,211.23z"/>
				<polygon points="131.63,221.49 121.12,221.49 121.12,212.75 130.55,212.75 130.55,210.16 121.12,210.16 121.12,202.49 
					131.09,202.49 131.09,199.86 117.99,199.86 117.99,224.12 131.63,224.12 				"/>
				<polygon points="149.34,221.49 138.83,221.49 138.83,212.75 148.26,212.75 148.26,210.16 138.83,210.16 138.83,202.49 
					148.8,202.49 148.8,199.86 135.7,199.86 135.7,224.12 149.34,224.12 				"/>
				<path d="M168.67,210.01c0,3.78,0.07,6.73,0.36,9.97l-0.07,0.04c-1.15-2.48-2.56-5.04-4.36-7.88l-7.78-12.27h-3.42v24.26h2.95
					v-10.37c0-4.03-0.07-6.95-0.25-10.01l0.11-0.04c1.22,2.63,2.84,5.4,4.54,8.1l7.7,12.31h3.17v-24.26h-2.95V210.01z"/>
				<rect x="183.08" y="213.22" width="8.89" height="2.34"/>
				<polygon points="212.23,224.12 212.23,200.72 209.53,200.72 204.42,203.46 205.04,205.87 209.1,203.68 209.17,203.68 
					209.17,224.12 				"/>
				<path d="M236.82,215.27h-3.28v-14.54h-3.42l-10.44,14.94v2.09h10.87v6.37h2.99v-6.37h3.28V215.27z M230.56,207.46v7.81h-7.67
					v-0.07l5.72-7.96c0.65-1.08,1.22-2.09,1.94-3.46h0.11C230.59,205.01,230.56,206.23,230.56,207.46z"/>
				<polygon points="240.64,224.12 248.34,216.24 256.04,224.12 257.63,222.54 249.89,214.65 257.63,206.77 256.04,205.19 
					248.34,213.07 240.64,205.19 239.05,206.77 246.76,214.65 239.05,222.54 				"/>
				<path d="M85.66,254.33v-0.07c2.56-0.94,4.1-2.99,4.1-5.33c0-1.91-0.76-3.35-2.02-4.28c-1.51-1.22-3.53-1.76-6.66-1.76
					c-2.2,0-4.36,0.22-5.72,0.5v23.86c1.04,0.14,2.7,0.29,4.86,0.29c3.96,0,6.69-0.72,8.39-2.27c1.22-1.19,2.05-2.77,2.05-4.86
					C90.66,256.81,87.96,254.9,85.66,254.33z M78.5,245.51c0.5-0.11,1.33-0.22,2.77-0.22c3.17,0,5.33,1.12,5.33,3.96
					c0,2.34-1.94,4.07-5.26,4.07H78.5V245.51z M81.12,265.09c-1.12,0-2.02-0.04-2.63-0.14v-9.25h2.59c3.42,0,6.26,1.37,6.26,4.68
					C87.35,263.9,84.36,265.09,81.12,265.09z"/>
				<path d="M107.01,256.63c0-3.49-1.3-7.13-6.62-7.13c-2.2,0-4.28,0.61-5.72,1.55l0.72,2.09c1.22-0.79,2.92-1.3,4.54-1.3
					c3.56,0,3.96,2.59,3.96,4.03v0.36c-6.73-0.04-10.47,2.27-10.47,6.48c0,2.52,1.8,5,5.33,5c2.48,0,4.36-1.22,5.33-2.59h0.11
					l0.25,2.2h2.88c-0.22-1.19-0.29-2.66-0.29-4.18V256.63z M103.95,261.45c0,0.32-0.07,0.68-0.18,1.01
					c-0.5,1.48-1.94,2.92-4.21,2.92c-1.62,0-2.99-0.97-2.99-3.02c0-3.38,3.92-4,7.38-3.92V261.45z"/>
				<rect x="112.12" y="241.76" width="3.17" height="25.56"/>
				<path d="M132.86,256.63c0-3.49-1.3-7.13-6.62-7.13c-2.2,0-4.28,0.61-5.72,1.55l0.72,2.09c1.22-0.79,2.92-1.3,4.54-1.3
					c3.56,0,3.96,2.59,3.96,4.03v0.36c-6.73-0.04-10.47,2.27-10.47,6.48c0,2.52,1.8,5,5.33,5c2.48,0,4.36-1.22,5.33-2.59h0.11
					l0.25,2.2h2.88c-0.22-1.19-0.29-2.66-0.29-4.18V256.63z M129.8,261.45c0,0.32-0.07,0.68-0.18,1.01
					c-0.5,1.48-1.94,2.92-4.21,2.92c-1.62,0-2.99-0.97-2.99-3.02c0-3.38,3.92-4,7.38-3.92V261.45z"/>
				<path d="M146.64,249.5c-2.88,0-4.9,1.62-5.76,3.28h-0.07l-0.18-2.88h-2.81c0.11,1.44,0.14,2.92,0.14,4.72v12.71h3.17v-10.47
					c0-0.54,0.07-1.08,0.22-1.48c0.54-1.76,2.16-3.24,4.25-3.24c2.99,0,4.03,2.34,4.03,5.15v10.04h3.17v-10.4
					C152.8,250.94,149.06,249.5,146.64,249.5z"/>
				<path d="M166.05,252.06c1.73,0,2.92,0.4,3.67,0.83l0.72-2.45c-0.86-0.43-2.52-0.9-4.39-0.9c-5.69,0-9.36,3.89-9.36,9.25
					c0,5.33,3.42,8.89,8.68,8.89c2.34,0,4.17-0.58,5-1.01l-0.54-2.38c-0.9,0.4-2.09,0.86-3.89,0.86c-3.46,0-6.05-2.48-6.05-6.51
					C159.89,255.01,162.05,252.06,166.05,252.06z"/>
				<path d="M180.99,249.5c-5.08,0-8.17,4.14-8.17,9.39c0,5.25,3.2,8.78,8.57,8.78c2.77,0,4.68-0.58,5.79-1.08l-0.54-2.27
					c-1.19,0.5-2.56,0.9-4.82,0.9c-3.17,0-5.9-1.76-5.97-6.05h12.24c0.04-0.32,0.11-0.83,0.11-1.48
					C188.19,254.51,186.67,249.5,180.99,249.5z M175.88,256.92c0.25-2.2,1.66-5.15,4.86-5.15c3.56,0,4.43,3.13,4.39,5.15H175.88z"/>
				<path d="M209.82,253.71c-1.44-0.86-3.24-1.26-5.04-1.26c-0.86,0-1.37,0.07-1.91,0.14l0.9-6.01h8.93v-2.66h-11.19L200,255.15
					c0.86-0.11,1.91-0.25,3.24-0.25c4.68,0,6.7,2.16,6.73,5.18c0,3.13-2.56,5.08-5.54,5.08c-2.12,0-4.03-0.72-5-1.29l-0.79,2.41
					c1.12,0.72,3.28,1.44,5.83,1.44c5.08,0,8.71-3.42,8.71-7.99C213.17,256.77,211.66,254.76,209.82,253.71z"/>
				<path d="M225.01,243.53c-4.75,0-8.13,4.32-8.13,12.17c0.07,7.74,3.17,12.02,7.74,12.02c5.18,0,8.14-4.39,8.14-12.35
					C232.75,247.92,229.95,243.53,225.01,243.53z M224.8,265.27c-2.88,0-4.75-3.46-4.75-9.54c0-6.37,2.02-9.75,4.79-9.75
					c3.28,0,4.75,3.78,4.75,9.54C229.59,261.49,228.04,265.27,224.8,265.27z"/>
				<path d="M243.48,243.53c-4.75,0-8.13,4.32-8.13,12.17c0.07,7.74,3.17,12.02,7.74,12.02c5.18,0,8.13-4.39,8.13-12.35
					C251.22,247.92,248.41,243.53,243.48,243.53z M243.27,265.27c-2.88,0-4.75-3.46-4.75-9.54c0-6.37,2.02-9.75,4.79-9.75
					c3.28,0,4.75,3.78,4.75,9.54C248.05,261.49,246.51,265.27,243.27,265.27z"/>
				<path d="M261.95,243.53c-4.75,0-8.13,4.32-8.13,12.17c0.07,7.74,3.17,12.02,7.74,12.02c5.18,0,8.13-4.39,8.13-12.35
					C269.69,247.92,266.88,243.53,261.95,243.53z M261.73,265.27c-2.88,0-4.75-3.46-4.75-9.54c0-6.37,2.02-9.75,4.79-9.75
					c3.28,0,4.75,3.78,4.75,9.54C266.52,261.49,264.97,265.27,261.73,265.27z"/>
				<path d="M298.96,258.65c-0.58,2.05-1.04,3.89-1.33,5.65h-0.11c-0.4-1.76-0.9-3.6-1.55-5.69l-2.7-8.71h-2.66l-2.84,8.89
					c-0.58,1.87-1.15,3.74-1.55,5.51h-0.11c-0.32-1.8-0.79-3.6-1.3-5.54l-2.3-8.85h-3.24l5.26,17.42h2.88l2.81-8.28
					c0.61-1.87,1.15-3.67,1.58-5.76h0.07c0.43,2.05,0.94,3.78,1.55,5.72l2.66,8.32h2.88l5.62-17.42h-3.13L298.96,258.65z"/>
				<rect x="307.74" y="249.9" width="3.17" height="17.42"/>
				<path d="M309.33,243.02c-1.15,0-1.98,0.86-1.98,1.98c0,1.08,0.79,1.94,1.91,1.94c1.26,0,2.05-0.86,2.02-1.94
					C311.27,243.89,310.51,243.02,309.33,243.02z"/>
				<path d="M324.84,249.5c-2.88,0-4.9,1.62-5.76,3.28h-0.07l-0.18-2.88h-2.81c0.11,1.44,0.14,2.92,0.14,4.72v12.71h3.17v-10.47
					c0-0.54,0.07-1.08,0.22-1.48c0.54-1.76,2.16-3.24,4.25-3.24c2.99,0,4.03,2.34,4.03,5.15v10.04H331v-10.4
					C331,250.94,327.25,249.5,324.84,249.5z"/>
				<path d="M341.76,257.21c-2.27-0.86-3.31-1.51-3.31-2.95c0-1.3,1.04-2.38,2.92-2.38c1.62,0,2.88,0.58,3.56,1.01l0.79-2.3
					c-0.97-0.58-2.52-1.08-4.28-1.08c-3.74,0-6.01,2.3-6.01,5.11c0,2.09,1.48,3.82,4.61,4.93c2.34,0.86,3.24,1.69,3.24,3.2
					c0,1.44-1.08,2.59-3.38,2.59c-1.58,0-3.24-0.65-4.17-1.26l-0.79,2.41c1.22,0.72,2.99,1.19,4.9,1.19c4.14,0,6.51-2.16,6.51-5.22
					C346.33,259.87,344.78,258.36,341.76,257.21z"/>
			</g>
		</g>
	</g>
</g>
<g id="Layer_2">
	<g>
		<path class="st10" d="M962,677c-69.98,0-135.78-27.25-185.26-76.74C727.25,550.78,700,484.98,700,415s27.25-135.78,76.74-185.26
			C826.22,180.25,892.02,153,962,153c69.98,0,135.78,27.25,185.26,76.74C1196.75,279.22,1224,345.02,1224,415
			s-27.25,135.78-76.74,185.26S1031.98,677,962,677z"/>
		<path d="M962,156c34.97,0,68.89,6.85,100.81,20.35c30.84,13.04,58.54,31.72,82.33,55.51c23.79,23.79,42.46,51.49,55.51,82.33
			c13.5,31.93,20.35,65.85,20.35,100.81s-6.85,68.89-20.35,100.81c-13.04,30.84-31.72,58.54-55.51,82.33
			c-23.79,23.79-51.49,42.46-82.33,55.51C1030.89,667.15,996.97,674,962,674s-68.89-6.85-100.81-20.35
			c-30.84-13.04-58.54-31.72-82.33-55.51c-23.79-23.79-42.46-51.49-55.51-82.33C709.85,483.89,703,449.97,703,415
			s6.85-68.89,20.35-100.81c13.04-30.84,31.72-58.54,55.51-82.33c23.79-23.79,51.49-42.46,82.33-55.51
			C893.11,162.85,927.03,156,962,156 M962,150c-146.36,0-265,118.64-265,265s118.64,265,265,265s265-118.64,265-265
			S1108.36,150,962,150L962,150z"/>
	</g>
	<g>
		<circle class="st11" cx="960.75" cy="414.61" r="249.57"/>
	</g>
	<g>
		<path class="st12" d="M959.83,183.66l-10.74-24.83c-0.99-2.28,0.69-4.83,3.17-4.83h21.47c2.49,0,4.16,2.55,3.17,4.83l-10.74,24.83
			C964.97,186.44,961.03,186.44,959.83,183.66z"/>
	</g>
	<g>
		<g>
			<g>
				<path d="M651.94,69.62v-0.29c6.82-2.3,12.19-7.97,12.19-16.51c0-4.99-1.82-9.41-5.09-12.29c-4.03-3.65-9.79-5.28-18.72-5.28
					c-5.76,0-11.81,0.48-16.03,1.34v63.84h8.35V72.4h7.87c7.58,0.29,11.04,3.65,12.96,12.57c1.82,8.06,3.26,13.63,4.32,15.46h8.64
					c-1.34-2.5-2.88-8.74-4.99-17.76C659.91,75.95,656.93,71.35,651.94,69.62z M641.19,66.07h-8.54V42.45
					c1.34-0.38,4.22-0.77,8.26-0.77c8.83,0.1,14.88,3.74,14.88,12.09C655.78,61.17,650.12,66.07,641.19,66.07z"/>
				<path d="M702.15,34.68c-17.28,0-30.05,13.44-30.05,33.98c0,19.58,12,32.83,29.09,32.83c16.51,0,30.05-11.81,30.05-34.08
					C731.23,48.21,719.81,34.68,702.15,34.68z M701.67,94.67c-13.15,0-20.64-12.38-20.64-26.21c0-14.21,6.91-26.97,20.73-26.97
					c13.92,0,20.64,13.44,20.64,26.3C722.4,82.48,714.92,94.67,701.67,94.67z"/>
				<path d="M781.25,74.03c0,14.3-6.14,20.64-15.74,20.64c-8.64,0-15.07-6.14-15.07-20.64v-38.3h-8.45v38.11
					c0,20.06,9.98,27.65,23.23,27.65c14.02,0,24.48-8.16,24.48-28.03V35.73h-8.45V74.03z"/>
				<polygon points="812.55,35.73 804.2,35.73 804.2,100.43 840.19,100.43 840.19,93.42 812.55,93.42 				"/>
				<polygon points="857.86,70.1 883.01,70.1 883.01,63.19 857.86,63.19 857.86,42.74 884.45,42.74 884.45,35.73 849.51,35.73 
					849.51,100.43 885.89,100.43 885.89,93.42 857.86,93.42 				"/>
				<polygon points="889.35,35.73 889.35,42.84 909.03,42.84 909.03,100.43 917.47,100.43 917.47,42.84 937.06,42.84 937.06,35.73 
									"/>
				<polygon points="937.25,42.84 956.74,42.84 956.74,100.43 965.18,100.43 965.18,42.84 984.96,42.84 984.96,35.73 937.25,35.73 
									"/>
				<rect x="937.06" y="35.73" width="0.19" height="7.1"/>
				<polygon points="1000.51,70.1 1025.66,70.1 1025.66,63.19 1000.51,63.19 1000.51,42.74 1027.1,42.74 1027.1,35.73 992.16,35.73 
					992.16,100.43 1028.54,100.43 1028.54,93.42 1000.51,93.42 				"/>
				<path d="M1087.68,73.17h13.15v19.29c-1.92,0.96-5.66,1.73-11.13,1.73c-15.07,0-24.96-9.7-24.96-26.11
					c0-16.22,10.27-26.01,26.01-26.01c6.53,0,10.85,1.25,14.3,2.78l2.02-6.82c-2.78-1.34-8.64-2.98-16.13-2.98
					c-21.69,0-34.94,14.11-35.04,33.41c0,10.08,3.46,18.72,9.02,24.09c6.33,6.05,14.4,8.54,24.19,8.54c8.74,0,16.13-2.21,19.87-3.55
					v-31.1h-21.31V73.17z"/>
				<path d="M1138.85,35.73l-21.98,64.7h8.64l6.72-20.35h22.94l6.91,20.35h8.93l-22.08-64.7H1138.85z M1133.95,73.55l6.33-18.72
					c1.25-3.94,2.3-7.87,3.26-11.71h0.19c0.96,3.74,1.92,7.58,3.36,11.81l6.34,18.62H1133.95z"/>
				<path d="M1230.14,35.73l-11.52,31.29c-2.88,8.16-5.18,15.26-6.82,21.79h-0.29c-1.63-6.72-3.84-13.82-6.53-21.79l-11.04-31.29
					h-10.66l-4.51,64.7h7.97l1.73-27.74c0.58-9.7,1.06-20.54,1.25-28.61h0.19c1.82,7.68,4.42,16.03,7.49,25.15l10.46,30.81h6.34
					l11.42-31.39c3.26-8.93,5.95-16.99,8.16-24.57h0.29c-0.1,8.06,0.48,18.91,0.96,27.93l1.63,28.41h8.16l-4.03-64.7H1230.14z"/>
				<polygon points="1266.04,93.42 1266.04,70.1 1291.2,70.1 1291.2,63.19 1266.04,63.19 1266.04,42.74 1292.64,42.74 
					1292.64,35.73 1257.69,35.73 1257.69,100.43 1294.08,100.43 1294.08,93.42 				"/>
			</g>
		</g>
	</g>
	<g id="layer1">
		<path id="path4825" class="st13" d="M997.25,194.27c-11.77-2.03-23.68-3.12-35.61-3.25v210.93L997.25,194.27z"/>
		<path id="path4823" class="st14" d="M1033.97,203.67c-11.26-3.94-22.83-6.98-34.57-9.08l-35.63,207.75L1033.97,203.67z"/>
		<path id="path4821" class="st15" d="M1068.66,218.97c-10.48-5.72-21.4-10.58-32.65-14.56l-70.19,198.66L1068.66,218.97z"/>
		<path id="path4819" class="st14" d="M1100.07,240.2c-9.3-7.48-19.19-14.2-29.56-20.1l-102.8,184.01L1100.07,240.2z"/>
		<path id="path4817" class="st15" d="M1127.48,266.37c-7.88-8.96-16.47-17.27-25.67-24.85L969.42,405.46L1127.48,266.37z"/>
		<path id="path4815" class="st14" d="M1150.22,296.68c-6.33-10.11-13.45-19.7-21.31-28.67L970.85,407.1L1150.22,296.68z"/>
		<path id="path4813" class="st15" d="M1167.4,330.45c-4.51-11.04-9.89-21.71-16.1-31.89l-179.31,110.4L1167.4,330.45z"/>
		<path id="path4811" class="st14" d="M1178.49,366.66c-2.48-11.66-5.89-23.11-10.2-34.23l-195.51,78.56L1178.49,366.66z"/>
		<path id="path4809" class="st15" d="M1183.58,404.18c-0.59-11.9-2.13-23.74-4.61-35.4L973.24,413.1L1183.58,404.18z"/>
		<path id="path4807" class="st14" d="M1182.03,442.01c1.21-9.14,1.84-18.35,1.91-27.57c-0.05-2.7-0.14-5.4-0.29-8.09l-210.34,8.93
			L1182.03,442.01z"/>
		<path id="path4805" class="st15" d="M1174.32,479.08c3.39-11.42,5.86-23.1,7.39-34.92l-208.66-26.73L1174.32,479.08z"/>
		<path id="path4803" class="st14" d="M1160.16,514.18c5.39-10.63,9.92-21.67,13.55-33.01l-201.28-61.66L1160.16,514.18z"/>
		<path id="path4801" class="st15" d="M1140.46,546.47c7.05-9.6,13.32-19.74,18.75-30.34l-187.78-94.69L1140.46,546.47z"/>
		<path id="path4799" class="st14" d="M1115.74,575.12c8.51-8.34,16.33-17.34,23.41-26.92L970.12,423.17L1115.74,575.12z"/>
		<path id="path4797" class="st15" d="M1086.28,598.87c9.86-6.68,19.16-14.14,27.83-22.31L968.56,424.67L1086.28,598.87z"/>
		<path id="path4795" class="st14" d="M1053.33,617.41c10.84-4.92,21.27-10.7,31.18-17.28L966.77,425.9L1053.33,617.41z"/>
		<path id="path4793" class="st15" d="M1017.77,630.33c11.49-3.11,22.72-7.13,33.57-12.03L964.8,426.8L1017.77,630.33z"/>
		<path id="path4791" class="st14" d="M980.51,636.85c11.86-1.07,23.61-3.09,35.15-6.04l-52.96-203.48L980.51,636.85z"/>
		<path id="path4789" class="st15" d="M942.68,637.03c5.91,0.53,11.84,0.83,17.78,0.89c5.97-0.03,11.94-0.3,17.89-0.81
			l-17.82-209.56L942.68,637.03z"/>
		<path id="path4787" class="st14" d="M905.39,630.74c11.52,2.99,23.27,5.06,35.12,6.18l17.85-209.55L905.39,630.74z"/>
		<path id="path4785" class="st15" d="M869.62,618.43c10.89,4.81,22.15,8.75,33.66,11.77l52.99-203.41L869.62,618.43z"/>
		<path id="path4783" class="st14" d="M836.44,600.21c9.93,6.58,20.37,12.36,31.22,17.27l86.61-191.55L836.44,600.21z"/>
		<path id="path4781" class="st15" d="M806.96,576.49c8.59,8.26,17.83,15.81,27.63,22.59L952.5,424.67L806.96,576.49z"/>
		<path id="path4779" class="st14" d="M781.76,548.26c7.15,9.53,15.04,18.48,23.62,26.75l145.57-151.86L781.76,548.26z"/>
		<path id="path4777" class="st15" d="M761.54,516.24c5.5,10.57,11.84,20.69,18.95,30.25l169.14-125.07L761.54,516.24z"/>
		<path id="path4775" class="st14" d="M747.41,481.1c3.51,11.4,7.92,22.49,13.2,33.18l188.05-94.78L747.41,481.1z"/>
		<path id="path4773" class="st15" d="M739.23,444.13c1.56,11.82,4.07,23.49,7.5,34.91l201.3-61.62L739.23,444.13z"/>
		<path id="path4771" class="st14" d="M737.39,406.3c-0.19,2.71-0.32,5.43-0.41,8.14c0.09,9.21,0.75,18.4,1.98,27.52l208.75-26.71
			L737.39,406.3z"/>
		<path id="path4769" class="st15" d="M741.8,368.66c-2.38,11.69-3.81,23.55-4.3,35.48l210.35,8.97L741.8,368.66z"/>
		<path id="path4767" class="st14" d="M752.81,332.38c-4.4,11.09-7.9,22.51-10.48,34.16l205.95,44.42L752.81,332.38z"/>
		<path id="path4765" class="st15" d="M769.75,298.48c-6.24,10.17-11.66,20.83-16.2,31.86l195.59,78.63L769.75,298.48z"/>
		<path id="path4763" class="st14" d="M792.02,267.81c-7.8,9.03-14.87,18.67-21.14,28.82l179.37,110.48L792.02,267.81z"/>
		<path id="path4761" class="st15" d="M819.25,241.41c-9.23,7.57-17.84,15.87-25.74,24.81l158.18,139.26L819.25,241.41z"/>
		<path id="path4759" class="st14" d="M850.64,220.13c-10.43,5.81-20.38,12.44-29.75,19.84L953.38,404.1L850.64,220.13z"/>
		<path id="path4757" class="st15" d="M885.08,204.29c-11.23,4.04-22.12,8.98-32.56,14.75l102.75,184L885.08,204.29z"/>
		<path id="path4755" class="st14" d="M921.7,194.39c-11.75,2.14-23.3,5.23-34.56,9.22l70.18,198.73L921.7,194.39z"/>
		<path id="path4753" class="st15" d="M959.46,191c-11.93,0.06-23.84,1.09-35.61,3.05l35.61,207.88V191z"/>
	</g>
	<g>
		
			<ellipse transform="matrix(0.7071 -0.7071 0.7071 0.7071 -12.7981 802.7732)" class="st11" cx="962.63" cy="416.84" rx="154.44" ry="154.44"/>
		<path d="M962.63,266.89c40.05,0,77.7,15.6,106.02,43.92c28.32,28.32,43.92,65.97,43.92,106.02s-15.6,77.7-43.92,106.02
			s-65.97,43.92-106.02,43.92s-77.7-15.6-106.02-43.92s-43.92-65.97-43.92-106.02s15.6-77.7,43.92-106.02
			C884.93,282.49,922.58,266.89,962.63,266.89 M962.63,257.89c-87.78,0-158.94,71.16-158.94,158.94s71.16,158.94,158.94,158.94
			s158.94-71.16,158.94-158.94S1050.41,257.89,962.63,257.89L962.63,257.89z"/>
	</g>
	<g>
		<circle class="st10" cx="962.7" cy="416.58" r="79.3"/>
	</g>
	<g>
		<circle class="st12" cx="961.94" cy="417.26" r="41.48"/>
	</g>
	<g>
		<circle class="st12" cx="960.58" cy="296.71" r="21.71"/>
	</g>
	<g>
		<circle class="st12" cx="962.43" cy="540.01" r="21.71"/>
	</g>
	<g>
		<circle class="st12" cx="842.79" cy="418.92" r="21.71"/>
	</g>
	<g>
		<circle class="st12" cx="1086.07" cy="415.09" r="21.71"/>
	</g>
	<line class="st16" x1="960.5" y1="296.5" x2="962.5" y2="540.5"/>
	<line class="st16" x1="838" y1="418" x2="1082" y2="415.91"/>
</g>
<g id="Layer_3">
</g>
</svg>
